<?xml version="1.0" standalone="no"?>
<!DOCTYPE svg PUBLIC "-//W3C//DTD SVG 20010904//EN"
 "http://www.w3.org/TR/2001/REC-SVG-20010904/DTD/svg10.dtd">
<svg version="1.0" xmlns="http://www.w3.org/2000/svg"
 width="780.000000pt" height="208.000000pt" viewBox="0 0 780.000000 208.000000"
 preserveAspectRatio="xMidYMid meet">

<g transform="translate(0.000000,208.000000) scale(0.100000,-0.100000)"
fill="#000000" stroke="none">
<path d="M3 1043 l2 -1038 3768 -3 3767 -2 0 1040 0 1040 -3770 0 -3770 0 3
-1037z m7477 -3 l0 -980 -3707 2 -3708 3 -3 978 -2 977 3710 0 3710 0 0 -980z"/>
<path d="M220 1882 c-7 -3 -10 -292 -10 -843 l0 -839 1780 0 1780 0 0 840 0
840 -1770 2 c-974 2 -1775 2 -1780 0z m585 -555 c27 -15 47 -37 63 -67 32 -63
29 -80 -11 -80 -29 0 -35 5 -46 36 -31 85 -195 99 -246 20 -37 -57 5 -102 126
-136 156 -43 215 -95 206 -183 -8 -84 -70 -136 -173 -145 -128 -11 -223 47
-248 151 -6 26 -5 27 32 27 34 0 39 -3 47 -32 14 -45 54 -70 118 -76 75 -6
124 12 143 52 31 64 -14 108 -148 141 -156 40 -221 127 -172 231 41 86 203
118 309 61z m461 -142 c60 -90 112 -165 115 -165 4 0 56 74 115 165 104 158
110 165 141 165 l33 0 0 -285 0 -285 -35 0 -35 0 -2 213 -3 212 -93 -137
c-124 -184 -119 -184 -238 -3 -49 74 -92 135 -96 135 -5 0 -8 -94 -8 -210 l0
-210 -35 0 -35 0 0 278 c0 153 3 282 7 285 3 4 18 7 33 7 24 0 40 -20 136
-165z m916 22 c32 -76 85 -203 117 -283 l60 -144 -39 0 c-37 0 -38 1 -63 63
l-25 62 -139 3 -140 3 -24 -63 c-24 -60 -26 -63 -62 -66 -20 -2 -37 -1 -37 2
0 3 48 121 106 263 58 141 110 268 115 281 7 19 15 23 41 20 32 -3 34 -6 90
-141z m659 111 c59 -35 84 -83 83 -160 -1 -69 -27 -115 -84 -147 -22 -12 -40
-25 -40 -27 0 -3 29 -47 65 -99 36 -51 65 -96 65 -99 0 -3 -18 -6 -39 -6 -39
0 -41 2 -108 100 l-68 100 -62 0 -63 0 0 -100 0 -100 -35 0 -35 0 0 286 0 286
138 -4 c128 -3 140 -5 183 -30z m687 -5 l3 -33 -95 0 -96 0 0 -250 0 -250 -40
0 -40 0 0 250 0 250 -95 0 -95 0 0 28 c0 16 3 32 7 36 4 3 106 5 227 4 l221
-3 3 -32z"/>
<path d="M2081 1219 c-5 -13 -28 -69 -50 -123 -23 -55 -41 -105 -41 -111 0 -8
33 -12 105 -14 58 -1 105 1 105 3 0 8 -101 260 -106 265 -2 2 -8 -7 -13 -20z"/>
<path d="M2590 1164 l0 -116 101 4 c99 4 102 4 130 36 22 25 29 42 29 75 0 84
-51 117 -180 117 l-80 0 0 -116z"/>
<path d="M3980 1058 l0 -283 172 2 c94 1 185 7 203 13 17 6 46 26 65 45 59 61
51 168 -16 211 l-25 17 26 27 c47 49 51 144 8 192 -42 48 -86 58 -265 58
l-168 0 0 -282z m281 152 c12 -7 19 -21 19 -40 0 -37 -23 -50 -89 -50 l-51 0
0 50 0 50 51 0 c28 0 59 -5 70 -10z m28 -242 c14 -24 14 -28 -3 -47 -16 -17
-31 -21 -83 -21 l-63 0 0 50 0 51 67 -3 c61 -3 69 -5 82 -30z"/>
<path d="M4701 1318 c-5 -13 -52 -135 -106 -273 -53 -137 -97 -254 -98 -259
-1 -6 33 -10 82 -10 l84 -1 18 43 18 42 91 0 91 0 19 -43 19 -43 82 3 c45 1
83 4 84 5 2 2 -45 127 -104 278 l-107 275 -82 3 c-78 3 -83 2 -91 -20z m122
-255 c15 -43 27 -81 27 -85 0 -5 -27 -8 -61 -8 -45 0 -60 3 -56 13 2 6 15 45
28 85 12 39 26 72 29 72 3 0 18 -35 33 -77z"/>
<path d="M5130 1270 l0 -70 110 0 c61 0 110 -3 110 -7 0 -5 -52 -75 -115 -158
l-116 -149 3 -54 3 -55 210 1 c116 1 216 2 223 2 8 0 12 21 12 70 l0 70 -115
0 c-63 0 -115 2 -115 5 0 2 52 72 115 154 l115 149 0 56 0 56 -220 0 -220 0 0
-70z"/>
<path d="M5820 1318 c-45 -99 -206 -534 -200 -538 5 -3 41 -5 82 -4 72 1 73 2
90 35 22 43 42 49 135 47 l76 -3 17 -40 17 -40 84 1 c46 1 83 6 82 11 -1 5
-49 130 -106 278 l-105 270 -81 3 c-76 3 -82 1 -91 -20z m124 -266 c14 -40 26
-75 26 -78 0 -2 -27 -4 -60 -4 -33 0 -60 3 -60 8 0 20 55 161 61 154 4 -4 19
-40 33 -80z"/>
<path d="M6437 1333 c-8 -13 -217 -551 -217 -558 0 -3 37 -5 83 -3 l82 3 20
40 20 40 94 1 93 1 18 -41 17 -41 84 2 c46 1 83 6 82 10 -1 5 -49 130 -106
278 l-105 270 -80 3 c-44 1 -83 -1 -85 -5z m117 -281 c14 -40 26 -75 26 -76 0
-2 -27 -4 -60 -4 -33 0 -60 3 -60 7 0 19 56 159 61 153 4 -4 19 -40 33 -80z"/>
<path d="M6882 1058 l3 -283 80 0 80 0 3 83 3 82 27 0 c25 0 32 -9 67 -79 l38
-80 94 -3 c51 -2 93 -1 93 1 0 2 -23 45 -50 96 l-50 93 25 16 c39 25 65 87 65
152 0 81 -29 137 -88 172 -46 26 -52 27 -220 30 l-172 4 2 -284z m292 131 c32
-25 35 -70 6 -99 -16 -16 -33 -20 -80 -20 l-60 0 0 63 c0 35 3 67 7 70 15 16
101 7 127 -14z"/>
</g>
</svg>
