<?xml version="1.0" standalone="no"?>
<!DOCTYPE svg PUBLIC "-//W3C//DTD SVG 20010904//EN"
 "http://www.w3.org/TR/2001/REC-SVG-20010904/DTD/svg10.dtd">
<svg version="1.0" xmlns="http://www.w3.org/2000/svg"
 width="1600.000000pt" height="800.000000pt" viewBox="0 0 1600.000000 800.000000"
 preserveAspectRatio="xMidYMid meet">

<g transform="translate(0.000000,800.000000) scale(0.100000,-0.100000)"
fill="#000000" stroke="none">
<path d="M0 4000 l0 -4000 8000 0 8000 0 0 4000 0 4000 -8000 0 -8000 0 0
-4000z m15978 3 l2 -1363 -4825 0 -4825 0 0 130 0 130 215 0 215 0 0 1110 0
1110 -192 1 c-106 1 -203 1 -215 1 -23 -1 -23 1 -23 123 l0 125 4823 -2 4822
-3 3 -1362z m-15201 843 c45 -8 111 -24 147 -35 68 -21 181 -74 190 -90 3 -5
-23 -69 -58 -143 -35 -73 -66 -144 -70 -156 -9 -27 -26 -28 -59 -2 -40 31
-129 69 -178 76 -62 8 -126 -11 -166 -51 -28 -28 -33 -40 -33 -78 0 -83 47
-120 237 -183 246 -82 347 -172 388 -346 8 -35 15 -83 16 -108 1 -42 2 -41 14
25 7 39 20 126 29 195 10 69 24 170 32 225 28 196 66 461 75 535 5 41 12 81
14 88 3 9 50 12 187 12 101 0 188 -4 194 -8 6 -4 33 -65 59 -137 26 -71 55
-152 66 -180 26 -71 58 -156 129 -346 55 -148 60 -170 49 -190 -7 -13 -45
-120 -85 -237 -69 -204 -79 -231 -88 -221 -2 2 -27 67 -56 144 -29 77 -60 160
-70 185 -10 25 -37 96 -60 158 -24 61 -46 112 -50 112 -8 0 -13 -36 -35 -235
-8 -71 -24 -206 -35 -300 -11 -93 -20 -173 -20 -177 0 -5 -15 -8 -34 -8 -38 0
-57 -17 -58 -52 -1 -71 -21 -103 -34 -53 -4 18 -13 25 -30 25 -17 0 -28 9 -38
33 l-14 32 -12 -32 c-8 -23 -20 -34 -41 -38 -27 -6 -29 -10 -29 -50 0 -35 -3
-43 -15 -39 -10 4 -15 25 -17 67 -3 54 -6 63 -26 72 -30 13 -37 46 -25 119 6
35 7 65 2 71 -6 5 -9 2 -9 -8 0 -9 -5 -17 -10 -17 -6 0 -9 21 -8 46 1 35 -3
50 -17 60 -26 19 -35 3 -35 -62 0 -89 -13 -204 -21 -198 -5 3 -9 29 -9 58 0
62 -16 89 -51 84 -22 -3 -24 -8 -27 -58 -5 -87 -42 -115 -42 -31 0 29 -6 53
-14 60 -19 16 -90 3 -115 -20 -11 -11 -25 -19 -31 -19 -6 0 -13 -7 -16 -15 -8
-21 -24 -19 -24 4 0 26 -50 16 -59 -13 -4 -15 -7 -8 -11 24 -5 45 -5 45 -47
48 l-43 3 0 -55 c0 -43 -3 -56 -15 -56 -8 0 -15 9 -15 20 0 11 -5 20 -11 20
-5 0 -15 14 -20 30 -15 43 -27 37 -34 -17 -10 -76 -19 -83 -23 -18 -4 69 -13
85 -37 61 -9 -9 -22 -16 -30 -16 -16 0 -22 -16 -31 -80 -4 -27 -10 -50 -14
-50 -19 0 -39 40 -42 83 -3 54 -20 66 -29 22 -6 -25 -7 -22 -8 18 -1 40 -5 49
-26 59 -41 18 -55 -3 -56 -86 l0 -71 -17 33 c-11 24 -21 32 -34 29 -10 -3 -18
-3 -18 0 0 15 125 253 132 253 6 0 30 -18 56 -40 93 -83 245 -134 329 -111 51
14 104 50 120 81 7 14 13 50 13 80 0 92 -45 127 -256 195 -258 82 -343 165
-367 356 -40 320 120 572 403 633 86 19 129 19 227 2z m1968 -48 c3 -7 10 -44
16 -83 61 -388 91 -585 113 -730 19 -128 53 -348 62 -402 7 -47 19 -56 27 -20
2 12 27 85 55 162 27 77 75 212 107 300 31 88 76 214 100 280 23 66 71 201
105 300 35 99 68 186 73 193 7 9 62 12 214 12 l204 0 13 -32 c8 -18 44 -121
80 -228 37 -107 71 -204 76 -215 5 -11 16 -42 24 -70 12 -39 112 -333 139
-405 3 -8 22 -64 42 -125 20 -60 40 -119 45 -130 8 -20 39 -113 88 -262 15
-46 30 -83 35 -83 4 0 7 347 7 770 l0 770 93 0 c50 0 136 3 189 7 l98 6 2
-369 3 -369 67 1 c108 3 179 37 213 105 19 36 20 151 1 187 -32 61 -108 102
-190 102 -67 0 -67 -1 -64 171 l3 154 120 3 c66 2 147 -2 180 -8 180 -35 314
-160 360 -337 17 -66 20 -206 5 -283 -25 -134 -118 -255 -235 -306 -36 -16
-65 -32 -65 -36 0 -5 56 -89 125 -187 69 -98 125 -183 125 -189 0 -6 -9 -14
-20 -17 -11 -3 -20 -11 -20 -16 0 -5 -7 -9 -15 -9 -8 0 -15 -7 -15 -15 0 -22
-17 -18 -23 5 -4 17 -9 19 -32 10 -36 -14 -35 -14 -35 19 0 25 -5 30 -35 35
-20 4 -40 4 -45 1 -6 -3 -10 -31 -10 -61 0 -41 -4 -54 -15 -54 -8 0 -15 8 -15
18 0 9 -9 23 -20 30 -11 7 -20 21 -20 32 0 10 -6 23 -14 27 -8 4 -16 24 -18
43 -2 23 -9 36 -20 38 -14 3 -19 -7 -24 -48 -12 -88 -34 -69 -143 122 -53 93
-99 168 -103 168 -4 0 -9 -107 -10 -237 -3 -232 -4 -238 -23 -235 -77 12 -90
18 -93 40 -2 14 -10 22 -24 22 -11 0 -22 8 -25 19 -8 29 -125 41 -153 16 -29
-26 -50 -73 -50 -110 0 -18 -7 -38 -15 -45 -24 -20 -45 -4 -45 32 0 34 -32 68
-45 48 -4 -6 -19 -9 -33 -8 -41 3 -52 -9 -52 -53 0 -54 -16 -49 -27 9 -10 59
-32 62 -53 6 -8 -23 -19 -42 -25 -43 -6 -1 -12 52 -15 131 -3 73 -9 139 -13
146 -5 7 -32 12 -73 12 l-64 0 0 41 0 40 -47 -3 -48 -3 -5 -105 c-4 -84 -8
-105 -20 -105 -9 0 -15 10 -15 30 0 17 -4 45 -9 63 -4 18 -11 72 -14 120 -7
87 -7 87 -36 90 -39 5 -44 -3 -51 -73 -8 -81 -14 -105 -24 -105 -5 0 -11 9
-14 20 -4 17 -14 20 -66 20 -56 0 -61 -2 -67 -25 -6 -22 -11 -25 -55 -25 -30
0 -49 4 -49 11 0 11 52 179 72 232 l10 27 139 0 139 0 0 25 c0 14 -4 33 -9 43
-6 9 -20 51 -31 92 -12 41 -25 86 -30 100 -5 14 -22 71 -40 128 -17 56 -35
102 -40 102 -5 0 -21 -39 -36 -87 -15 -49 -55 -176 -90 -283 -34 -107 -72
-226 -83 -265 -28 -95 -27 -94 -103 -103 l-38 -4 0 -98 0 -99 -46 -30 c-25
-17 -56 -31 -69 -31 -23 0 -24 4 -27 68 l-3 67 -50 3 c-35 2 -52 -1 -60 -12
-6 -8 -27 -16 -46 -18 -34 -3 -34 -3 -39 -61 -3 -31 -8 -57 -12 -57 -5 0 -12
0 -18 0 -18 0 -21 46 -5 93 9 26 14 51 11 56 -9 14 -54 0 -59 -19 -3 -10 -15
-20 -28 -22 -16 -2 -25 -11 -27 -26 -2 -15 -10 -22 -20 -21 -9 1 -29 -1 -45
-6 -18 -5 -33 -3 -43 5 -17 15 -29 6 -37 -25 -3 -11 -5 -2 -6 19 -1 28 -9 48
-27 67 -22 23 -27 42 -40 155 -14 114 -33 268 -49 389 -3 22 -11 71 -17 109
l-10 68 -23 -58 c-45 -117 -84 -221 -125 -334 -87 -241 -84 -235 -110 -238
-35 -5 -50 -20 -50 -50 0 -20 -3 -23 -12 -14 -20 20 -58 15 -58 -8 0 -11 -2
-20 -3 -20 -2 0 -22 18 -45 39 -37 36 -46 39 -89 38 -46 -2 -48 -3 -51 -34 -4
-37 -17 -43 -27 -13 -4 12 11 69 36 142 78 229 137 402 183 533 25 72 63 184
86 250 22 66 45 129 50 140 5 11 13 36 19 55 12 44 87 256 96 270 10 16 374
13 380 -2z m3015 -168 l0 -180 -145 0 -145 0 0 180 0 180 145 0 145 0 0 -180z
m735 0 l0 -175 -157 -3 -158 -3 0 -530 0 -529 -24 -9 c-13 -5 -26 -17 -29 -25
-4 -9 -11 -16 -17 -16 -6 0 -10 39 -10 102 0 130 -18 177 -67 178 -18 0 -33
-4 -33 -9 0 -5 -20 -6 -45 -4 l-44 6 -3 -159 -3 -159 -55 0 -55 0 -3 745 c-1
410 0 751 3 758 3 10 79 12 352 10 l348 -3 0 -175z m-6384 -1293 c-17 -17 -24
-1 -10 25 12 21 14 21 17 4 2 -10 -1 -23 -7 -29z"/>
<path d="M7357 4984 c-9 -9 -9 -1458 -1 -1467 13 -13 34 7 34 32 0 14 3 43 6
64 5 29 11 37 28 37 12 0 27 -5 33 -11 6 -6 21 -9 34 -7 23 3 24 7 27 90 3 84
4 88 27 94 50 13 55 3 55 -110 l0 -106 26 -6 c21 -5 31 -2 44 15 12 16 25 22
46 19 24 -2 29 -8 32 -33 3 -30 4 -30 54 -26 28 2 61 -2 74 -9 28 -16 54 -7
54 18 0 30 50 124 63 119 22 -7 37 -52 37 -114 0 -60 1 -63 25 -63 15 0 25 6
25 14 0 8 7 16 15 20 10 3 15 19 15 45 0 49 28 75 67 60 13 -5 26 -9 28 -9 2
0 5 28 7 62 3 59 4 62 33 69 16 5 39 6 52 3 20 -6 23 -12 23 -59 l0 -53 53 -4
c29 -3 57 0 64 6 7 6 18 54 24 107 10 83 10 106 -6 175 -21 96 -44 143 -93
192 -40 39 -113 82 -140 82 -45 1 -44 17 6 67 72 72 92 133 92 277 0 172 -35
258 -137 335 -78 58 -146 76 -293 76 l-125 0 0 -155 0 -155 57 -7 c110 -14
148 -53 148 -153 0 -102 -47 -144 -172 -153 l-68 -5 0 119 c0 66 -2 207 -3
314 l-2 195 -181 3 c-99 1 -183 -1 -187 -4z m106 -41 c-7 -2 -19 -2 -25 0 -7
3 -2 5 12 5 14 0 19 -2 13 -5z m605 -25 c7 -7 12 -23 12 -37 0 -22 -2 -23 -14
-11 -31 33 -29 79 2 48z m142 -71 c0 -15 -23 -1 -39 23 l-16 24 27 -19 c15
-11 28 -24 28 -28z m-615 -27 c3 -5 1 -10 -4 -10 -6 0 -11 5 -11 10 0 6 2 10
4 10 3 0 8 -4 11 -10z m0 -50 c-2 -4 -16 -5 -30 -3 -13 3 -23 9 -20 13 2 4 16
5 30 3 13 -3 23 -9 20 -13z m-9 -128 c-9 -8 -26 10 -26 26 1 15 2 15 15 -2 8
-11 13 -21 11 -24z m104 13 c10 6 11 -1 5 -31 -9 -48 -13 -56 -27 -48 -16 10
-151 4 -163 -7 -15 -15 -13 -63 3 -75 23 -17 10 -47 -30 -69 -36 -19 -37 -19
-57 -1 -26 24 -27 36 -2 29 27 -7 31 7 15 45 -12 29 -16 32 -34 22 -18 -10
-20 -8 -20 25 0 33 2 35 33 37 60 3 114 14 132 28 6 4 29 11 53 15 27 4 46 14
53 27 8 15 13 17 19 8 4 -7 13 -9 20 -5z m466 -21 c-19 -18 -21 -11 -4 19 7
14 13 17 15 10 3 -7 -3 -20 -11 -29z m-39 10 c-3 -3 -12 -4 -19 -1 -8 3 -5 6
6 6 11 1 17 -2 13 -5z m-19 -32 c2 -7 -3 -12 -12 -12 -9 0 -16 7 -16 16 0 17
22 14 28 -4z m127 -42 c-3 -5 -10 -10 -16 -10 -5 0 -9 5 -9 10 0 6 7 10 16 10
8 0 12 -4 9 -10z m-524 -43 c-1 -4 -1 -14 -1 -22 0 -8 -7 -15 -15 -15 -10 0
-15 -11 -15 -35 0 -38 -10 -44 -30 -20 -7 9 -19 14 -27 11 -9 -4 -16 4 -19 23
-5 22 -13 31 -38 36 l-31 8 45 8 c25 4 53 5 62 3 10 -3 26 -1 35 5 19 11 35
10 34 -2z m-121 -121 c0 -11 -19 -15 -25 -6 -3 5 1 10 9 10 9 0 16 -2 16 -4z
m-116 -61 c-3 -14 -12 -25 -20 -25 -16 0 -16 -2 -8 -24 4 -11 14 -13 35 -9 31
6 40 -10 13 -25 -17 -10 -74 -4 -74 8 0 4 -9 10 -20 13 -26 7 -14 43 20 60 14
7 29 22 35 34 8 18 11 20 18 8 4 -8 5 -26 1 -40z m679 46 c10 -4 17 -11 15
-16 -2 -6 9 -11 25 -13 41 -5 34 -35 -20 -87 -27 -25 -51 -45 -55 -45 -5 0 -8
-9 -8 -20 0 -23 -8 -25 -33 -6 -11 9 -14 17 -8 20 6 4 8 13 5 20 -3 8 -1 17 5
20 6 4 8 13 5 21 -6 15 24 35 42 28 21 -7 23 35 3 53 -33 29 -20 43 24 25z
m-560 -53 c-25 -28 -33 -21 -16 13 11 23 18 28 24 18 5 -8 2 -20 -8 -31z m84
-59 c3 -10 13 -19 23 -19 10 0 23 -6 29 -14 9 -11 6 -15 -15 -20 -15 -4 -30
-3 -33 3 -7 11 -61 3 -61 -10 0 -5 -7 -9 -15 -9 -8 0 -15 7 -15 15 0 11 -8 13
-32 8 -21 -4 -29 -3 -24 5 4 6 14 8 22 5 12 -5 15 1 12 25 -2 17 2 30 7 29 6
-1 10 -13 10 -27 0 -20 6 -26 26 -28 17 -2 29 3 32 12 8 21 -2 46 -19 46 -8 0
-14 7 -14 15 0 14 4 14 31 -1 17 -8 34 -24 36 -35z m-33 -75 c22 -9 20 -31 -4
-39 -11 -3 -20 -13 -20 -21 0 -8 -5 -12 -11 -8 -8 4 -8 9 0 17 6 6 11 21 11
34 0 25 1 26 24 17z m58 -12 c-23 -7 -12 -22 17 -22 33 0 44 -10 32 -29 -9
-14 -56 -11 -56 4 0 6 -4 16 -9 23 -11 18 1 45 16 36 9 -6 9 -9 0 -12z m53 8
c3 -5 -3 -10 -15 -10 -12 0 -18 5 -15 10 3 6 10 10 15 10 5 0 12 -4 15 -10z
m412 -8 c-10 -10 -17 -25 -17 -32 0 -11 -4 -10 -17 3 -16 16 -16 18 2 32 30
22 53 20 32 -3z m-98 -12 c13 -12 21 -26 17 -35 -8 -22 -43 -18 -49 5 -5 21
-27 28 -27 9 0 -5 -4 -8 -9 -5 -5 3 -7 15 -4 26 7 26 41 26 72 0z m-476 -7 c5
-3 -1 -14 -13 -25 -21 -19 -22 -19 -35 -2 -23 31 -19 45 13 38 15 -4 31 -9 35
-11z m203 -21 c-9 -8 -26 10 -26 26 1 15 2 15 15 -2 8 -11 13 -21 11 -24z
m167 22 c18 -7 20 -14 11 -37 -4 -12 -12 -13 -36 -6 -17 4 -33 10 -35 13 -8 8
22 46 32 41 5 -3 18 -8 28 -11z m-553 -44 c0 -5 -4 -10 -10 -10 -5 0 -10 5
-10 10 0 6 5 10 10 10 6 0 10 -4 10 -10z m280 -12 c0 -19 -18 -44 -25 -36 -4
3 0 15 7 27 15 24 18 26 18 9z m-220 -18 c0 -5 -7 -10 -16 -10 -8 0 -12 5 -9
10 3 6 10 10 16 10 5 0 9 -4 9 -10z m701 -23 c-5 -5 -7 -15 -5 -22 3 -7 1 -16
-5 -20 -7 -4 -11 7 -11 29 0 28 3 34 16 29 10 -4 12 -9 5 -16z m-75 -29 c-3
-13 -6 -26 -6 -30 0 -5 -4 -8 -10 -8 -5 0 -10 14 -10 30 0 21 5 30 16 30 12 0
15 -6 10 -22z m-588 -21 c2 -15 -1 -27 -7 -27 -6 0 -8 -7 -5 -15 7 -17 -11
-21 -21 -5 -3 6 -20 10 -37 10 -26 0 -29 2 -18 15 7 8 18 15 26 15 7 0 18 9
24 21 15 27 34 19 38 -14z m185 0 c-1 -15 3 -27 9 -27 6 0 9 -3 5 -6 -3 -3
-19 4 -35 16 -24 18 -28 25 -19 36 20 22 42 11 40 -19z m278 13 c104 -29 147
-131 99 -233 -32 -68 -76 -87 -215 -94 l-115 -6 0 170 c0 93 3 173 8 178 9 9
175 -1 223 -15z m347 -72 c-3 -7 -11 -13 -18 -13 -7 0 -15 6 -17 13 -3 7 4 12
17 12 13 0 20 -5 18 -12z m-608 -18 c0 -5 -7 -10 -16 -10 -8 0 -12 5 -9 10 3
6 10 10 16 10 5 0 9 -4 9 -10z m507 -33 c3 -4 -3 -7 -15 -7 -27 0 -28 -14 -3
-32 14 -10 16 -18 9 -38 -9 -23 -10 -24 -22 -8 -9 12 -16 14 -23 7 -19 -19
-26 11 -7 32 13 15 15 22 6 31 -7 7 -12 16 -12 20 0 9 57 5 67 -5z m98 3 c3
-5 1 -10 -5 -10 -7 0 -9 -8 -5 -20 4 -14 2 -20 -8 -20 -15 0 -27 20 -27 46 0
16 36 19 45 4z m39 -82 c-3 -5 -12 -7 -19 -4 -7 2 -18 -1 -24 -7 -8 -8 -11 -6
-11 9 0 17 5 20 30 16 16 -2 27 -9 24 -14z m-674 -2 c0 -15 -29 -55 -34 -47
-7 11 14 51 26 51 5 0 8 -2 8 -4z m-209 -79 c-13 -13 -33 2 -27 19 3 7 0 17
-6 20 -8 5 -5 10 8 14 15 6 21 2 26 -19 4 -14 3 -30 -1 -34z m231 51 c-5 -7
-12 -22 -15 -33 -5 -20 -5 -20 -6 1 0 11 4 25 11 32 16 16 23 15 10 0z m455
-80 c-3 -8 -6 -5 -6 6 -1 11 2 17 5 13 3 -3 4 -12 1 -19z m-70 -34 c-3 -3 -12
-4 -19 -1 -8 3 -5 6 6 6 11 1 17 -2 13 -5z"/>
<path d="M8936 4982 c-3 -5 -12 -31 -21 -58 -9 -27 -20 -58 -25 -69 -4 -11
-33 -94 -65 -185 -31 -91 -60 -174 -65 -185 -5 -11 -20 -56 -35 -100 -14 -44
-30 -89 -34 -100 -18 -40 -81 -216 -122 -340 -11 -33 -24 -69 -29 -80 -4 -11
-13 -36 -20 -55 -7 -19 -16 -44 -21 -55 -4 -11 -15 -40 -23 -65 -8 -25 -26
-75 -39 -112 -23 -63 -24 -68 -8 -82 31 -28 40 -19 43 42 3 55 4 57 33 60 17
2 35 10 42 18 8 11 25 14 60 12 l48 -3 5 -65 5 -65 30 3 c17 2 37 10 46 18 8
8 21 14 27 14 20 0 27 25 32 119 l5 95 54 10 c54 11 54 11 68 61 9 28 19 59
23 70 4 11 24 74 45 140 21 66 50 158 65 205 16 47 38 118 51 158 23 77 35 95
45 65 3 -10 9 -27 14 -38 4 -11 13 -40 20 -65 7 -25 16 -54 20 -65 5 -11 11
-29 13 -40 3 -11 19 -66 36 -122 17 -56 31 -109 31 -117 0 -13 -23 -16 -136
-18 l-136 -3 -13 -35 c-7 -19 -21 -62 -30 -95 -9 -33 -21 -68 -26 -77 -5 -10
-9 -27 -9 -39 0 -17 4 -20 23 -15 12 3 34 6 49 6 20 0 27 6 30 23 3 19 10 22
60 25 49 3 58 0 68 -18 18 -33 30 -23 30 25 0 25 6 63 12 85 11 33 17 40 39
40 29 0 33 -10 44 -115 17 -165 20 -180 35 -180 12 0 16 20 20 100 l5 100 42
3 42 3 3 -38 3 -38 60 3 c33 1 65 -1 72 -6 9 -5 13 -50 15 -142 2 -110 6 -135
18 -135 8 0 17 14 21 33 4 19 12 39 19 45 16 16 40 -17 41 -57 1 -30 1 -30 13
8 12 39 38 58 64 48 7 -2 18 1 25 7 18 14 57 -21 51 -46 -6 -24 12 -51 25 -38
12 12 3 55 -10 55 -5 0 -9 9 -9 21 0 19 -41 150 -60 194 -5 11 -20 54 -34 95
-56 170 -147 436 -156 455 -5 11 -27 74 -49 140 -22 66 -74 219 -115 340 l-75
220 -210 3 c-115 1 -212 -1 -215 -6z m432 -294 c-6 -18 -28 -21 -28 -4 0 9 7
16 16 16 9 0 14 -5 12 -12z m-531 -174 c-3 -3 -12 -4 -19 -1 -8 3 -5 6 6 6 11
1 17 -2 13 -5z m33 -33 c0 -10 -9 -26 -20 -36 -17 -16 -20 -16 -20 -2 0 9 5
19 11 22 6 4 8 13 5 20 -2 7 -2 16 1 19 10 9 23 -4 23 -23z m63 12 c-7 -2 -19
-2 -25 0 -7 3 -2 5 12 5 14 0 19 -2 13 -5z m-128 -43 c-3 -5 -10 -10 -16 -10
-5 0 -9 5 -9 10 0 6 7 10 16 10 8 0 12 -4 9 -10z m703 -2 c17 -17 15 -45 -4
-52 -9 -4 -18 -5 -18 -4 -13 23 -23 57 -19 62 10 10 28 7 41 -6z m-570 -67 c3
-24 8 -30 24 -28 11 1 23 -4 26 -12 3 -11 -1 -12 -19 -7 -13 4 -41 7 -61 6
-28 0 -38 3 -38 14 0 9 -9 20 -20 26 -11 6 -20 15 -20 20 0 5 9 12 20 15 11 3
20 13 20 22 0 12 6 11 33 -6 22 -14 33 -29 35 -50z m-120 -73 c23 -23 14 -48
-17 -48 -35 0 -49 27 -24 46 22 17 26 17 41 2z m-61 -46 c14 -19 18 -34 12
-49 -10 -28 -27 -37 -44 -23 -15 12 -17 67 -3 76 4 3 6 10 3 15 -14 22 13 6
32 -19z m593 -32 c0 -11 -6 -20 -13 -20 -7 0 -23 -9 -34 -20 l-22 -19 2 32 c2
28 5 33 23 29 12 -2 25 1 28 7 11 16 16 13 16 -9z m-470 -5 c0 -15 -47 -37
-55 -25 -3 5 -12 7 -20 3 -9 -3 -15 1 -15 10 0 16 14 21 62 23 16 1 28 -4 28
-11z m560 0 c0 -13 -4 -14 -20 -5 -11 6 -20 13 -20 15 0 3 9 5 20 5 11 0 20
-7 20 -15z m55 -16 c4 -6 5 -12 2 -15 -7 -7 -37 7 -37 17 0 13 27 11 35 -2z
m-129 -56 c-7 -7 -26 7 -26 19 0 6 6 6 15 -2 9 -7 13 -15 11 -17z m117 0 c9
-9 -12 -33 -29 -33 -17 0 -18 27 -1 33 18 8 23 8 30 0z m-139 -46 c8 -13 7
-20 -4 -27 -20 -12 -45 12 -36 35 7 20 25 16 40 -8z m-598 -198 c7 -12 -15
-31 -28 -23 -4 3 -8 12 -8 20 0 17 26 19 36 3z m-220 -236 c-11 -11 -19 6 -11
24 8 17 8 17 12 0 3 -10 2 -21 -1 -24z"/>
<path d="M8730 4225 c0 -8 4 -15 9 -15 5 0 11 7 15 15 3 9 0 15 -9 15 -8 0
-15 -7 -15 -15z"/>
<path d="M9897 4983 c-4 -3 -7 -82 -7 -175 l0 -168 272 2 273 3 92 165 c51 91
93 168 93 173 0 9 -714 10 -723 0z m163 -32 c0 -14 -18 -23 -30 -16 -6 4 -8
11 -5 16 8 12 35 12 35 0z"/>
<path d="M10640 4949 c-12 -22 -30 -56 -41 -75 -32 -56 -52 -93 -124 -224 -38
-69 -93 -167 -122 -218 -29 -52 -53 -95 -53 -97 0 -2 -13 -26 -29 -53 -16 -27
-42 -74 -59 -103 -119 -215 -189 -343 -220 -399 -19 -36 -41 -74 -49 -85 -26
-39 -12 -65 37 -65 10 0 20 -9 23 -20 3 -12 14 -20 26 -20 14 0 25 -9 31 -25
6 -16 17 -25 30 -25 12 0 30 -5 41 -10 11 -6 25 -7 32 -3 6 4 20 6 30 5 11 -2
17 3 17 17 0 11 11 28 25 37 14 9 28 27 31 40 11 45 33 28 36 -28 3 -46 6 -53
26 -56 22 -3 28 11 23 62 -2 25 17 46 40 46 11 0 19 7 19 15 0 8 4 15 8 15 20
0 32 -28 32 -72 0 -26 5 -48 10 -48 6 0 10 23 10 50 0 38 4 50 15 50 8 0 15
-6 15 -13 0 -8 9 -24 20 -37 11 -13 20 -27 20 -32 0 -4 5 -8 10 -8 6 0 10 25
10 55 l0 55 45 0 c39 0 45 -3 51 -24 4 -19 14 -25 47 -29 34 -5 49 -1 79 19
24 17 43 24 57 19 12 -4 21 -2 21 4 0 20 39 12 51 -10 6 -12 8 -36 5 -54 -4
-21 -2 -36 5 -41 17 -10 29 16 29 63 0 62 7 73 47 73 30 0 34 3 31 23 l-3 22
-297 3 c-220 2 -298 5 -298 14 0 6 24 55 54 107 64 114 348 625 386 696 15 28
60 109 100 180 40 72 85 153 101 182 16 29 29 54 29 57 0 4 -99 6 -220 6
l-220 0 -20 -41z m-103 -881 c-3 -8 -6 -5 -6 6 -1 11 2 17 5 13 3 -3 4 -12 1
-19z m-392 -364 c28 -18 77 -26 86 -13 3 5 5 -7 5 -26 0 -19 -2 -31 -5 -27 -4
4 -32 9 -64 10 -55 3 -58 2 -52 -17 8 -27 1 -26 -38 1 -17 13 -43 22 -57 21
-23 -2 -18 1 19 13 11 3 11 7 1 19 -18 22 3 18 28 -5 20 -19 27 -18 23 4 -2 8
18 36 26 36 2 0 15 -7 28 -16z m38 -80 c12 -13 -3 -21 -28 -17 -13 3 -22 9
-19 14 6 10 38 12 47 3z"/>
<path d="M11562 4973 c-5 -10 -26 -67 -46 -128 -20 -60 -41 -119 -46 -130 -5
-11 -16 -40 -24 -65 -8 -25 -31 -90 -51 -145 -20 -55 -48 -134 -61 -175 -14
-41 -29 -84 -33 -95 -15 -33 -41 -105 -62 -169 -11 -34 -24 -70 -29 -81 -9
-20 -40 -108 -105 -295 -20 -58 -40 -114 -45 -125 -20 -47 -20 -58 -3 -71 33
-25 42 -16 45 44 3 55 4 57 33 60 17 2 37 10 46 18 11 10 32 14 60 12 l44 -3
3 -62 c3 -62 3 -63 32 -63 16 0 44 10 64 23 l35 22 3 100 3 100 48 7 c27 3 54
11 61 17 8 6 21 39 31 74 20 72 47 155 67 212 9 22 23 67 33 100 9 33 21 69
25 80 4 11 23 68 41 127 19 59 38 106 44 105 5 -2 16 -26 23 -53 26 -94 74
-249 83 -266 5 -10 9 -26 9 -36 0 -10 4 -22 9 -27 5 -6 12 -29 16 -52 l7 -43
-129 0 c-70 0 -133 -4 -140 -8 -15 -10 -94 -245 -85 -254 4 -4 26 -4 49 -1 33
4 43 10 45 27 3 18 11 21 65 24 54 3 63 0 73 -18 17 -31 30 -14 30 37 0 67 19
113 46 113 13 0 25 -3 28 -8 5 -8 25 -136 35 -226 3 -34 11 -61 19 -64 9 -3
12 21 12 97 0 86 3 102 18 110 24 13 87 -1 88 -19 1 -8 2 -23 3 -32 1 -15 11
-18 61 -18 48 0 61 -4 70 -19 5 -11 10 -73 10 -139 0 -65 3 -122 7 -125 11
-11 33 14 33 38 0 12 7 28 15 35 25 21 45 -5 45 -59 0 -33 3 -42 10 -31 5 8
10 29 10 47 0 37 9 45 62 49 35 3 40 1 35 -15 -6 -26 48 -80 64 -64 8 8 8 17
0 31 -6 11 -11 39 -11 61 0 40 1 41 34 41 18 0 39 7 46 15 9 11 27 15 59 13
l46 -3 3 -67 3 -67 32 6 c18 3 44 14 59 24 14 11 31 19 37 19 6 0 11 39 13
102 l3 103 49 7 c27 4 53 13 57 20 5 7 20 51 35 98 14 47 30 94 35 105 12 28
111 345 117 375 2 14 8 30 12 35 3 6 12 29 20 53 13 41 30 57 30 28 0 -8 11
-50 25 -93 13 -43 34 -112 46 -153 12 -41 29 -97 39 -125 9 -27 20 -62 24 -77
l6 -28 -132 0 c-73 0 -138 -4 -143 -8 -13 -9 -94 -251 -86 -256 3 -2 27 -2 53
1 38 4 47 9 50 27 3 18 11 21 66 24 57 3 64 1 69 -17 9 -33 23 -13 24 32 0 23
6 58 13 77 11 29 18 35 42 35 28 0 29 -2 36 -60 5 -33 11 -98 15 -144 5 -53
13 -86 21 -89 9 -3 12 21 12 97 0 97 1 102 24 112 35 16 80 -7 84 -44 3 -26 5
-27 67 -27 48 0 64 -4 69 -16 3 -9 6 -71 6 -139 0 -80 4 -126 11 -131 13 -8
27 11 35 48 7 29 29 44 40 26 4 -6 13 -29 20 -52 l13 -41 0 36 c1 43 19 61 63
64 55 5 78 -10 78 -50 0 -24 5 -35 14 -35 20 0 45 37 39 58 -6 26 24 90 52
108 30 19 133 10 142 -13 3 -8 16 -19 29 -24 14 -5 24 -17 24 -29 0 -15 7 -20
24 -20 14 0 36 -4 50 -10 18 -6 28 -6 33 3 4 7 8 108 8 224 0 135 4 213 10
214 10 1 54 -66 115 -176 72 -129 88 -149 107 -134 7 7 16 29 19 51 4 21 11
41 16 45 13 7 28 -16 28 -44 0 -23 38 -95 53 -102 4 -2 13 -15 20 -30 10 -24
12 -22 17 34 l5 60 42 3 c37 3 42 0 45 -20 2 -17 10 -24 33 -26 17 -2 35 -9
40 -16 8 -11 18 -6 47 23 l37 36 -27 42 c-35 54 -124 182 -179 258 -24 32 -43
62 -43 66 0 3 21 14 48 24 155 59 231 169 262 382 12 82 9 115 -21 223 -31
109 -116 212 -214 261 -82 40 -183 59 -317 59 l-108 0 0 -159 0 -158 66 -7
c137 -14 194 -72 194 -196 0 -91 -42 -150 -129 -179 -38 -12 -161 -15 -162 -3
0 4 -2 162 -5 352 l-4 345 -185 3 -185 2 -1 -667 c-2 -763 -2 -820 -10 -827
-2 -3 -28 66 -57 152 -29 86 -57 166 -62 177 -5 11 -31 88 -59 170 -79 237
-151 448 -161 470 -5 11 -34 97 -65 190 -31 94 -60 179 -65 190 -4 11 -13 35
-19 53 -6 17 -16 46 -22 62 l-12 30 -210 -2 -210 -3 -47 -135 c-25 -74 -57
-164 -69 -200 -13 -36 -39 -110 -58 -165 -19 -55 -38 -109 -43 -120 -4 -11
-13 -36 -20 -55 -7 -19 -16 -44 -21 -55 -4 -11 -15 -40 -23 -65 -8 -25 -36
-103 -61 -175 -26 -71 -53 -148 -61 -170 -57 -160 -80 -219 -89 -222 -5 -1
-21 32 -34 75 -14 42 -28 84 -32 92 -4 8 -24 65 -44 125 -19 61 -40 118 -45
127 -6 10 -10 25 -10 33 0 8 -4 23 -10 33 -5 9 -35 94 -65 187 -31 94 -60 179
-65 190 -5 11 -18 49 -30 85 -12 36 -25 74 -30 85 -5 11 -13 36 -19 55 -15 54
-85 254 -94 268 -6 9 -60 12 -212 12 -184 0 -205 -2 -213 -17z m3088 -52 c0
-9 5 -22 12 -29 7 -7 8 -12 2 -12 -5 0 -16 6 -22 12 -10 10 -15 10 -22 -1 -7
-12 -11 -12 -24 -2 -20 17 -20 31 -1 31 8 0 15 6 15 14 0 9 7 12 20 9 11 -3
20 -13 20 -22z m-546 -6 c20 -8 36 -20 36 -25 0 -6 9 -10 21 -10 14 0 19 -5
17 -17 -3 -15 -14 -18 -60 -19 -51 0 -57 2 -55 19 1 11 -4 22 -10 24 -7 3 -13
-3 -13 -11 0 -9 -7 -19 -15 -22 -8 -4 -15 -12 -15 -19 0 -7 -7 -15 -15 -19 -9
-3 -15 -18 -15 -36 0 -16 -4 -30 -9 -30 -12 0 -19 68 -8 79 12 12 0 31 -19 31
-8 0 -14 10 -14 23 0 31 8 38 30 25 13 -8 27 -7 56 5 49 20 45 20 88 2z m341
-54 c3 -5 1 -12 -5 -16 -5 -3 -10 1 -10 9 0 18 6 21 15 7z m125 -31 c0 -5 -2
-10 -4 -10 -3 0 -8 5 -11 10 -3 6 -1 10 4 10 6 0 11 -4 11 -10z m-555 -79 c3
-5 1 -12 -5 -16 -5 -3 -10 1 -10 9 0 18 6 21 15 7z m-2025 -61 c0 -5 -7 -10
-16 -10 -8 0 -12 5 -9 10 3 6 10 10 16 10 5 0 9 -4 9 -10z m1390 2 c0 -13 -12
-22 -22 -16 -10 6 -1 24 13 24 5 0 9 -4 9 -8z m870 -12 c0 -5 -4 -10 -10 -10
-5 0 -10 5 -10 10 0 6 5 10 10 10 6 0 10 -4 10 -10z m-151 -37 c2 -2 -12 -3
-32 -3 -34 0 -36 1 -25 20 12 18 13 18 33 2 11 -9 22 -18 24 -19z m-84 7 c3
-5 1 -10 -4 -10 -6 0 -11 5 -11 10 0 6 2 10 4 10 3 0 8 -4 11 -10z m-55 -20
c0 -5 -7 -10 -15 -10 -8 0 -15 5 -15 10 0 6 7 10 15 10 8 0 15 -4 15 -10z
m280 -24 c0 -8 -7 -17 -16 -20 -25 -9 -64 -7 -64 4 0 6 14 10 30 10 17 0 30 5
30 10 0 6 5 10 10 10 6 0 10 -6 10 -14z m580 -97 c0 -43 -9 -49 -27 -19 -8 12
-9 21 -3 25 6 3 10 15 10 26 0 11 5 17 10 14 6 -3 10 -24 10 -46z m-3363 5
c-3 -3 -12 -4 -19 -1 -8 3 -5 6 6 6 11 1 17 -2 13 -5z m1400 0 c-3 -3 -12 -4
-19 -1 -8 3 -5 6 6 6 11 1 17 -2 13 -5z m103 -20 c0 -2 -9 -4 -21 -4 -11 0
-18 4 -14 10 5 8 35 3 35 -6z m-1460 -14 c0 -11 16 -34 35 -51 36 -32 44 -56
23 -77 -17 -17 -58 -15 -58 2 0 8 -9 18 -20 21 -11 3 -20 12 -20 20 0 18 32
28 42 13 6 -8 7 -4 2 12 -9 33 -13 37 -24 20 -16 -26 -23 -2 -9 29 16 36 29
40 29 11z m63 13 c-7 -2 -21 -2 -30 0 -10 3 -4 5 12 5 17 0 24 -2 18 -5z
m1332 -4 c12 -19 -5 -23 -22 -6 -16 16 -16 17 -1 17 9 0 20 -5 23 -11z m-767
-31 c14 -14 16 -54 2 -63 -13 -8 -43 42 -36 60 7 18 18 19 34 3z m702 -9 c0
-5 -7 -9 -15 -9 -15 0 -20 12 -9 23 8 8 24 -1 24 -14z m100 1 c0 -11 3 -20 8
-20 16 0 31 -52 21 -71 -15 -28 -44 -23 -78 13 -24 26 -27 34 -16 41 8 4 12
14 9 22 -4 10 0 12 15 8 15 -4 21 -1 21 11 0 9 5 16 10 16 6 0 10 -9 10 -20z
m598 -23 c-4 -39 -25 -47 -34 -13 -8 35 1 57 21 50 11 -5 15 -16 13 -37z
m-2098 18 c0 -8 -4 -15 -10 -15 -5 0 -10 7 -10 15 0 8 5 15 10 15 6 0 10 -7
10 -15z m1940 -5 c0 -5 -4 -10 -10 -10 -5 0 -10 5 -10 10 0 6 5 10 10 10 6 0
10 -4 10 -10z m724 -16 c20 -8 21 -24 2 -24 -8 0 -16 -4 -18 -8 -4 -10 -78
-24 -78 -15 0 4 10 17 22 30 22 23 43 28 72 17z m-2654 -64 c0 -5 -6 -10 -14
-10 -8 0 -18 5 -21 10 -3 6 3 10 14 10 12 0 21 -4 21 -10z m1380 0 c-8 -5 -22
-10 -30 -10 -13 0 -13 1 0 10 8 5 22 10 30 10 13 0 13 -1 0 -10z m-1205 -9 c7
-12 -12 -24 -25 -16 -11 7 -4 25 10 25 5 0 11 -4 15 -9z m1395 -6 c0 -8 -4
-15 -9 -15 -13 0 -22 16 -14 24 11 11 23 6 23 -9z m-1564 -40 c24 -24 13 -51
-19 -47 -22 3 -27 0 -27 -19 0 -18 -2 -19 -15 -9 -9 7 -18 10 -21 7 -9 -9 5
-27 22 -27 18 0 18 -16 0 -23 -19 -8 -34 11 -38 48 -2 25 1 31 20 33 12 2 22
8 22 14 0 9 28 37 38 38 2 0 10 -7 18 -15z m1398 -6 c20 -29 11 -47 -20 -41
-18 3 -24 0 -24 -13 0 -12 -5 -15 -16 -11 -9 3 -25 6 -36 6 -28 0 -16 25 13
26 14 0 23 6 21 13 -3 12 25 40 40 41 4 0 14 -10 22 -21z m1161 -20 c10 -15
-1 -23 -20 -15 -9 3 -13 10 -10 16 8 13 22 13 30 -1z m875 -19 c0 -5 -4 -10
-10 -10 -5 0 -10 5 -10 10 0 6 5 10 10 10 6 0 10 -4 10 -10z m-3370 -33 c0
-24 -36 -37 -64 -24 -35 16 -33 25 7 30 17 2 38 5 45 5 6 1 12 -4 12 -11z
m1390 -2 c0 -20 -23 -29 -55 -21 -35 9 -31 24 8 29 17 2 35 5 40 5 4 1 7 -5 7
-13z m526 0 c-8 -8 -20 -15 -27 -15 -9 0 -8 4 1 15 7 8 19 15 27 15 12 0 12
-2 -1 -15z m128 -1 c5 -14 4 -15 -9 -4 -17 14 -19 20 -6 20 5 0 12 -7 15 -16z
m-1574 -1 c-1 -11 -70 -43 -70 -33 0 26 15 40 41 40 16 0 29 -3 29 -7z m40 -3
c0 -5 -4 -10 -10 -10 -5 0 -10 5 -10 10 0 6 5 10 10 10 6 0 10 -4 10 -10z
m1357 -4 c4 -3 -2 -6 -12 -6 -10 0 -27 -7 -37 -17 -22 -20 -29 -15 -22 15 5
17 12 21 35 18 17 -2 33 -6 36 -10z m137 -2 c9 -23 8 -24 -14 -24 -19 0 -27
20 -13 33 11 11 20 8 27 -9z m-1416 -8 c-7 -8 -15 -12 -17 -11 -5 6 10 25 20
25 5 0 4 -6 -3 -14z m687 3 c10 -15 -1 -23 -20 -15 -9 3 -13 10 -10 16 8 13
22 13 30 -1z m-665 -59 c0 -13 -38 -32 -50 -25 -15 10 -12 23 8 28 30 8 42 7
42 -3z m1378 -12 c-7 -19 -38 -22 -38 -4 0 10 9 16 21 16 12 0 19 -5 17 -12z
m-1530 -20 c8 -8 8 -17 1 -30 -10 -19 -12 -19 -30 -2 -14 13 -16 20 -8 31 14
16 22 16 37 1z m1400 -21 c3 -14 -1 -18 -20 -15 -12 2 -24 11 -26 21 -3 14 1
18 20 15 12 -2 24 -11 26 -21z m-1338 -7 c0 -5 -5 -10 -11 -10 -5 0 -7 5 -4
10 3 6 8 10 11 10 2 0 4 -4 4 -10z m-662 -187 c-4 -22 -22 -20 -26 1 -2 10 3
16 13 16 10 0 15 -7 13 -17z m1394 2 c0 -5 -5 -11 -11 -13 -6 -2 -11 4 -11 13
0 9 5 15 11 13 6 -2 11 -8 11 -13z m-1611 -228 c-10 -9 -11 -8 -5 6 3 10 9 15
12 12 3 -3 0 -11 -7 -18z"/>
<path d="M733 4623 c-7 -3 -13 -11 -13 -19 0 -8 -7 -28 -15 -44 -15 -29 -15
-30 7 -31 64 -3 85 -7 111 -19 15 -7 29 -11 30 -9 2 2 2 25 -1 52 -3 36 -8 47
-21 47 -9 0 -21 4 -26 9 -13 11 -57 20 -72 14z m17 -58 c0 -8 -4 -15 -10 -15
-5 0 -10 7 -10 15 0 8 5 15 10 15 6 0 10 -7 10 -15z m90 -31 c0 -9 -5 -14 -12
-12 -18 6 -21 28 -4 28 9 0 16 -7 16 -16z"/>
<path d="M453 4570 c-13 -15 -23 -33 -23 -39 0 -6 -9 -15 -20 -21 -34 -18 -22
-30 30 -30 44 0 50 3 50 21 0 11 4 18 9 15 5 -3 7 -15 4 -27 -5 -18 -2 -20 23
-17 17 2 30 10 32 20 2 12 -2 15 -17 11 -17 -4 -21 -1 -21 20 0 16 -7 27 -17
30 -17 4 -17 5 0 6 17 1 25 31 8 31 -5 0 -15 2 -23 4 -7 3 -23 -8 -35 -24z"/>
<path d="M566 4593 c-11 -11 -6 -23 9 -23 8 0 15 4 15 9 0 13 -16 22 -24 14z"/>
<path d="M327 4544 c-8 -8 1 -24 14 -24 5 0 9 7 9 15 0 15 -12 20 -23 9z"/>
<path d="M926 4524 c-4 -9 -4 -19 -2 -21 8 -8 26 8 26 23 0 19 -16 18 -24 -2z"/>
<path d="M1770 4500 c0 -5 5 -10 10 -10 6 0 10 5 10 10 0 6 -4 10 -10 10 -5 0
-10 -4 -10 -10z"/>
<path d="M218 4423 c-24 -6 -31 -34 -11 -48 15 -11 14 -14 -9 -29 -44 -29 -8
-97 44 -80 17 5 20 12 15 46 -3 23 -11 44 -18 49 -10 6 -10 12 4 27 9 10 17
21 17 24 0 9 -23 15 -42 11z"/>
<path d="M362 4329 c-7 -12 -11 -23 -8 -26 3 -3 8 2 12 11 3 9 10 16 15 16 15
0 10 -29 -8 -38 -9 -6 -14 -16 -10 -25 5 -13 10 -14 31 -4 20 10 25 19 24 49
0 32 -4 38 -22 38 -12 0 -27 -9 -34 -21z"/>
<path d="M470 4311 c-8 -3 -15 -16 -16 -28 0 -19 5 -23 33 -23 18 0 36 0 40
-1 4 0 9 3 10 8 5 14 -51 51 -67 44z"/>
<path d="M1350 4209 c-48 -10 -78 -53 -45 -65 21 -8 19 -21 -5 -27 -24 -6 -26
-25 -4 -34 11 -4 23 2 34 17 19 26 48 22 79 -12 13 -14 26 -18 40 -13 25 8 28
23 4 21 -10 0 -17 5 -15 12 1 7 -3 23 -10 35 -7 12 -13 27 -14 32 0 6 -2 15
-2 21 -3 17 -23 22 -62 13z m50 -54 c0 -8 -4 -15 -10 -15 -5 0 -10 7 -10 15 0
8 5 15 10 15 6 0 10 -7 10 -15z"/>
<path d="M1623 4183 c-20 -8 -15 -23 7 -23 11 0 20 -7 20 -15 0 -9 7 -29 15
-45 14 -26 21 -30 58 -30 l42 0 -32 20 c-18 11 -33 24 -33 30 0 16 -42 70 -54
69 -6 0 -17 -3 -23 -6z"/>
<path d="M1550 4171 c0 -6 5 -13 10 -16 6 -3 10 1 10 9 0 9 -4 16 -10 16 -5 0
-10 -4 -10 -9z"/>
<path d="M1780 4124 c0 -17 22 -14 28 4 2 7 -3 12 -12 12 -9 0 -16 -7 -16 -16z"/>
<path d="M1835 4110 c-3 -6 1 -7 9 -4 18 7 21 14 7 14 -6 0 -13 -4 -16 -10z"/>
<path d="M1570 4081 c0 -6 5 -13 10 -16 6 -3 10 1 10 9 0 9 -4 16 -10 16 -5 0
-10 -4 -10 -9z"/>
<path d="M1870 4001 c0 -13 43 -39 57 -34 22 8 -5 43 -32 43 -14 0 -25 -4 -25
-9z"/>
<path d="M1968 3980 c3 -21 8 -28 14 -22 12 12 7 44 -8 49 -7 2 -9 -8 -6 -27z"/>
<path d="M1760 3969 c0 -5 5 -7 10 -4 6 3 10 8 10 11 0 2 -4 4 -10 4 -5 0 -10
-5 -10 -11z"/>
<path d="M1899 3944 c-1 -5 -1 -13 0 -17 1 -4 -6 -10 -14 -13 -25 -10 -17 -27
10 -20 27 7 35 -8 10 -18 -8 -3 -12 -12 -9 -21 8 -20 24 -19 24 1 0 8 4 12 10
9 5 -3 19 3 31 14 25 23 18 61 -11 61 -10 0 -25 3 -34 6 -9 3 -17 2 -17 -2z"/>
<path d="M1737 3910 c5 -21 53 -30 53 -10 0 6 -9 10 -21 10 -11 0 -17 5 -14
10 3 6 0 10 -8 10 -10 0 -13 -7 -10 -20z"/>
<path d="M1012 3668 c5 -15 28 -23 28 -10 0 5 -7 13 -16 16 -10 4 -14 1 -12
-6z"/>
<path d="M1182 3615 c0 -16 2 -22 5 -12 2 9 2 23 0 30 -3 6 -5 -1 -5 -18z"/>
<path d="M2507 4744 c-8 -40 2 -84 20 -84 11 0 12 8 7 38 -4 20 -10 46 -14 56
-6 17 -8 15 -13 -10z"/>
<path d="M5077 4734 c-24 -20 -25 -24 -9 -24 27 0 59 26 47 39 -7 6 -19 1 -38
-15z"/>
<path d="M4504 4730 c-11 -11 -66 -16 -94 -9 -10 3 -16 -5 -18 -22 -2 -19 3
-28 22 -37 19 -8 23 -16 18 -34 -5 -22 -5 -22 19 -7 13 9 30 30 38 47 8 18 21
32 28 32 7 0 13 -2 13 -4 0 -2 3 -11 6 -20 4 -11 0 -17 -12 -18 -11 -1 6 -4
36 -7 39 -5 59 -3 70 7 13 12 12 16 -7 29 -13 9 -23 21 -23 28 0 7 -9 10 -24
8 -13 -3 -27 0 -30 6 -9 14 -29 14 -42 1z"/>
<path d="M2723 4660 c0 -25 2 -35 4 -22 2 12 2 32 0 45 -2 12 -4 2 -4 -23z"/>
<path d="M4900 4665 c0 -8 5 -15 10 -15 6 0 10 7 10 15 0 8 -4 15 -10 15 -5 0
-10 -7 -10 -15z"/>
<path d="M4952 4650 c0 -14 2 -19 5 -12 2 6 2 18 0 25 -3 6 -5 1 -5 -13z"/>
<path d="M5270 4659 c0 -5 5 -7 10 -4 6 3 10 8 10 11 0 2 -4 4 -10 4 -5 0 -10
-5 -10 -11z"/>
<path d="M4424 4589 c-3 -6 -1 -16 5 -22 8 -8 11 -5 11 11 0 24 -5 28 -16 11z"/>
<path d="M5315 4521 c-3 -5 -1 -12 5 -16 5 -3 10 1 10 9 0 18 -6 21 -15 7z"/>
<path d="M2707 4490 c-3 -13 -14 -20 -29 -20 -14 0 -27 -3 -31 -6 -9 -9 16
-44 30 -44 16 0 17 -16 2 -25 -6 -4 -9 -26 -7 -48 3 -34 8 -43 26 -45 26 -4
29 15 7 44 -19 25 -19 34 0 34 10 0 15 10 15 30 0 17 -5 30 -11 30 -6 0 -7 5
-2 13 8 14 16 57 10 57 -3 0 -7 -9 -10 -20z"/>
<path d="M3816 4501 c-4 -7 -5 -15 -2 -18 9 -9 19 4 14 18 -4 11 -6 11 -12 0z"/>
<path d="M2300 4485 c0 -8 4 -15 10 -15 5 0 7 7 4 15 -4 8 -8 15 -10 15 -2 0
-4 -7 -4 -15z"/>
<path d="M4692 4489 c2 -6 8 -10 13 -10 5 0 11 4 13 10 2 6 -4 11 -13 11 -9 0
-15 -5 -13 -11z"/>
<path d="M4507 4473 c-13 -12 -7 -33 8 -33 8 0 15 9 15 20 0 20 -11 26 -23 13z"/>
<path d="M4557 4463 c-4 -3 -7 -11 -7 -17 0 -6 5 -5 12 2 6 6 9 14 7 17 -3 3
-9 2 -12 -2z"/>
<path d="M2480 4440 c0 -5 4 -10 9 -10 6 0 13 5 16 10 3 6 -1 10 -9 10 -9 0
-16 -4 -16 -10z"/>
<path d="M4400 4435 c0 -9 5 -15 11 -13 6 2 11 8 11 13 0 5 -5 11 -11 13 -6 2
-11 -4 -11 -13z"/>
<path d="M2611 4414 c-13 -30 -6 -64 14 -64 13 0 23 42 17 73 -5 24 -17 21
-31 -9z"/>
<path d="M4688 4419 c-2 -6 -14 -12 -26 -13 -25 -1 -31 -19 -8 -24 9 -2 16 1
16 7 0 6 9 11 20 11 21 0 27 14 11 24 -5 4 -11 1 -13 -5z"/>
<path d="M2277 4400 c3 -11 9 -20 14 -20 11 0 11 3 3 24 -9 23 -23 20 -17 -4z"/>
<path d="M2440 4396 c0 -9 5 -16 10 -16 6 0 10 4 10 9 0 6 -4 13 -10 16 -5 3
-10 -1 -10 -9z"/>
<path d="M2472 4399 c2 -7 10 -15 17 -17 8 -3 12 1 9 9 -2 7 -10 15 -17 17 -8
3 -12 -1 -9 -9z"/>
<path d="M2500 4359 c-8 -15 -15 -17 -24 -10 -6 6 -22 8 -34 4 -14 -3 -22 -1
-22 8 0 8 -5 6 -13 -6 -10 -13 -21 -16 -40 -11 -32 8 -34 -3 -7 -34 17 -20 20
-21 26 -6 5 14 14 16 46 11 29 -5 44 -3 59 9 10 9 22 16 27 16 4 -1 8 8 10 20
4 26 -14 26 -28 -1z"/>
<path d="M2768 4358 c-7 -17 8 -46 18 -35 4 4 3 17 -3 29 -7 17 -11 19 -15 6z"/>
<path d="M5275 4350 c4 -6 2 -17 -5 -25 -13 -16 6 -63 20 -49 19 20 15 84 -6
84 -8 0 -12 -5 -9 -10z"/>
<path d="M3265 4320 c-3 -5 3 -10 15 -10 12 0 18 5 15 10 -3 6 -10 10 -15 10
-5 0 -12 -4 -15 -10z"/>
<path d="M2254 4303 c-3 -11 -14 -23 -25 -26 -28 -7 -23 -27 6 -27 14 0 25 5
25 10 0 6 4 10 10 10 5 0 7 -7 4 -15 -11 -26 11 -16 29 14 22 38 21 44 -4 36
-14 -5 -25 -2 -30 6 -7 11 -10 9 -15 -8z"/>
<path d="M3310 4291 c0 -10 -3 -26 -6 -35 -4 -10 -1 -16 8 -16 16 0 23 56 8
65 -5 3 -10 -3 -10 -14z"/>
<path d="M3349 4267 c8 -9 12 -18 10 -20 -2 -1 -13 -7 -23 -13 -39 -21 -42
-40 -11 -68 34 -32 48 -33 68 -3 14 21 13 25 -4 48 -10 13 -19 29 -19 35 0 6
-8 18 -17 25 -16 13 -17 12 -4 -4z"/>
<path d="M3240 4255 c0 -17 9 -19 28 -6 11 7 10 10 -3 15 -23 9 -25 8 -25 -9z"/>
<path d="M3945 4260 c-10 -16 5 -70 20 -70 7 0 15 11 17 24 8 39 -20 73 -37
46z"/>
<path d="M2225 4210 c12 -13 22 -17 28 -11 13 13 -1 31 -25 31 -21 0 -21 -1
-3 -20z"/>
<path d="M4480 4205 c-29 -30 -25 -35 20 -26 46 8 75 26 66 40 -13 20 -61 12
-86 -14z"/>
<path d="M3213 4166 c4 -14 47 -21 47 -8 0 5 -11 12 -25 15 -16 3 -24 0 -22
-7z"/>
<path d="M3431 4151 c-10 -7 -10 -10 -1 -16 6 -4 16 -3 22 3 13 13 -4 23 -21
13z"/>
<path d="M3230 4095 c-6 -8 -9 -19 -5 -24 3 -6 0 -21 -7 -33 -7 -13 -11 -26
-10 -30 1 -5 -2 -8 -8 -8 -5 0 -10 5 -10 11 0 5 -5 7 -10 4 -9 -6 11 -35 24
-35 10 0 35 57 29 64 -5 5 21 8 43 5 17 -2 22 27 7 43 -20 22 -37 23 -53 3z"/>
<path d="M2227 4083 c-13 -12 -7 -23 13 -23 11 0 20 7 20 15 0 15 -21 21 -33
8z"/>
<path d="M3180 4065 c-16 -19 -2 -38 19 -26 9 6 10 14 4 25 -9 16 -11 16 -23
1z"/>
<path d="M4437 4074 c-12 -12 3 -22 24 -17 16 4 17 8 7 14 -16 10 -23 11 -31
3z"/>
<path d="M2640 4050 c0 -5 5 -10 10 -10 6 0 10 5 10 10 0 6 -4 10 -10 10 -5 0
-10 -4 -10 -10z"/>
<path d="M3982 4041 c2 -14 9 -26 16 -29 17 -5 15 10 -3 34 -15 18 -15 18 -13
-5z"/>
<path d="M3315 4030 c-4 -6 -18 -9 -32 -8 -35 4 -39 -14 -7 -29 31 -14 64 1
64 29 0 20 -15 24 -25 8z"/>
<path d="M3877 4034 c-8 -8 1 -24 14 -24 5 0 9 7 9 15 0 15 -12 20 -23 9z"/>
<path d="M3773 4023 c-22 -4 -34 -33 -14 -33 17 0 61 27 54 33 -3 4 -9 6 -12
6 -3 -1 -16 -4 -28 -6z"/>
<path d="M2386 4012 c-2 -4 -1 -14 3 -21 6 -10 10 -9 14 3 6 16 -8 32 -17 18z"/>
<path d="M3840 4010 c0 -5 5 -10 10 -10 6 0 10 5 10 10 0 6 -4 10 -10 10 -5 0
-10 -4 -10 -10z"/>
<path d="M3920 4000 c0 -5 5 -10 10 -10 6 0 10 5 10 10 0 6 -4 10 -10 10 -5 0
-10 -4 -10 -10z"/>
<path d="M3950 3994 c0 -8 5 -12 10 -9 6 4 8 11 5 16 -9 14 -15 11 -15 -7z"/>
<path d="M2175 3980 c-10 -16 16 -43 28 -31 11 11 2 41 -12 41 -5 0 -13 -5
-16 -10z"/>
<path d="M3870 3979 c0 -5 5 -7 10 -4 6 3 10 8 10 11 0 2 -4 4 -10 4 -5 0 -10
-5 -10 -11z"/>
<path d="M2238 3932 c2 -18 -2 -35 -13 -45 -17 -17 -12 -63 6 -52 5 4 9 -8 9
-25 0 -17 4 -29 9 -26 5 3 9 34 9 69 0 35 3 73 6 85 6 17 3 22 -12 22 -15 0
-18 -6 -14 -28z"/>
<path d="M3910 3941 c0 -5 7 -12 16 -15 22 -9 24 -8 24 9 0 8 -9 15 -20 15
-11 0 -20 -4 -20 -9z"/>
<path d="M2361 3931 c-10 -6 -10 -10 -1 -16 13 -8 24 -1 19 14 -3 6 -10 7 -18
2z"/>
<path d="M2616 3925 c-3 -8 -1 -15 4 -15 6 0 10 7 10 15 0 8 -2 15 -4 15 -2 0
-6 -7 -10 -15z"/>
<path d="M2550 3921 c0 -17 15 -19 28 -5 11 12 9 14 -8 14 -11 0 -20 -4 -20
-9z"/>
<path d="M3767 3914 c-3 -4 1 -18 10 -31 15 -23 18 -24 29 -8 7 9 10 23 7 31
-5 14 -34 19 -46 8z"/>
<path d="M2080 3903 c0 -6 -3 -18 -6 -27 -3 -9 -1 -16 5 -16 17 0 25 30 12 43
-8 8 -11 8 -11 0z"/>
<path d="M2795 3817 c-9 -33 -4 -40 19 -31 20 8 20 15 2 40 -14 18 -15 18 -21
-9z"/>
<path d="M2585 3808 c-11 -6 -21 -12 -23 -13 -2 -2 19 -93 34 -144 10 -32 23
5 14 39 -5 19 -12 46 -15 60 l-7 25 21 -23 c21 -25 61 -27 69 -4 2 7 -7 12
-25 12 -24 1 -25 2 -10 11 23 13 22 29 -3 29 -11 0 -20 5 -20 10 0 13 -10 12
-35 -2z"/>
<path d="M3175 3700 c-7 -12 2 -30 16 -30 5 0 9 9 9 20 0 21 -15 27 -25 10z"/>
<path d="M2760 3654 c0 -3 5 -14 11 -26 8 -14 8 -27 -1 -47 -9 -22 -8 -43 2
-93 14 -68 31 -91 36 -47 3 25 5 26 38 19 26 -6 34 -5 34 6 0 7 -9 18 -20 24
-23 13 -27 32 -5 23 13 -4 16 2 14 36 -2 22 -8 42 -13 42 -6 1 -18 2 -26 3 -8
0 -17 12 -19 26 -1 14 -8 28 -15 32 -13 9 -36 10 -36 2z"/>
<path d="M2594 3568 c4 -24 11 -44 16 -46 6 -2 10 -9 10 -17 0 -7 10 -20 23
-29 13 -10 18 -19 11 -22 -16 -7 6 -52 28 -58 25 -6 23 23 -4 79 -14 29 -27
44 -36 40 -7 -2 -11 -1 -7 4 3 5 0 11 -6 13 -7 2 -7 12 0 29 10 29 -1 49 -27
49 -11 0 -13 -9 -8 -42z"/>
<path d="M2670 3580 c0 -5 5 -10 10 -10 6 0 10 5 10 10 0 6 -4 10 -10 10 -5 0
-10 -4 -10 -10z"/>
<path d="M2975 3480 c4 -6 11 -8 16 -5 14 9 11 15 -7 15 -8 0 -12 -5 -9 -10z"/>
<path d="M5622 4693 c-8 -15 -9 -24 -1 -28 15 -10 21 0 17 27 l-3 23 -13 -22z"/>
<path d="M5510 4540 c0 -19 3 -21 12 -12 9 9 9 15 0 24 -9 9 -12 7 -12 -12z"/>
<path d="M6268 4713 c7 -3 16 -2 19 1 4 3 -2 6 -13 5 -11 0 -14 -3 -6 -6z"/>
<path d="M6233 4691 c4 -14 1 -31 -5 -38 -9 -11 -7 -15 10 -20 12 -3 22 -11
22 -19 0 -7 5 -16 11 -20 20 -12 -1 79 -23 101 l-21 20 6 -24z"/>
<path d="M6177 4511 c-3 -12 -2 -23 3 -26 12 -7 22 27 12 37 -6 6 -12 1 -15
-11z"/>
<path d="M5847 3874 c-9 -9 4 -35 14 -28 5 3 9 12 9 20 0 14 -12 19 -23 8z"/>
<path d="M5855 3670 c4 -6 11 -8 16 -5 14 9 11 15 -7 15 -8 0 -12 -5 -9 -10z"/>
<path d="M5845 3527 c-11 -7 -21 -12 -23 -13 -1 -1 2 -12 7 -25 8 -18 10 -20
10 -6 1 14 6 17 21 12 16 -5 20 -2 20 19 0 29 -5 31 -35 13z"/>
<path d="M5838 3333 c7 -3 16 -2 19 1 4 3 -2 6 -13 5 -11 0 -14 -3 -6 -6z"/>
</g>
</svg>
